<?xml version="1.0" ?><!DOCTYPE svg  PUBLIC '-//W3C//DTD SVG 1.1//EN'  'http://www.w3.org/Graphics/SVG/1.1/DTD/svg11.dtd'><svg enable-background="new 0 0 91 91" height="91px" id="Layer_1" version="1.1" viewBox="0 0 91 91" width="91px" xml:space="preserve" xmlns="http://www.w3.org/2000/svg" xmlns:xlink="http://www.w3.org/1999/xlink"><g><g><g><g><path d="M51.124,40.148c-0.982-0.98-2.574-0.979-3.553,0.002l-1.971,1.971L43.63,40.15c-0.979-0.98-2.57-0.982-3.553-0.002      c-0.98,0.982-0.98,2.572,0,3.555l1.971,1.972l-1.971,1.97c-0.98,0.98-0.98,2.572,0,3.553c0.49,0.49,1.135,0.736,1.777,0.736      s1.285-0.246,1.775-0.736l1.971-1.971l1.971,1.971c0.49,0.49,1.133,0.736,1.775,0.736s1.287-0.246,1.777-0.736      c0.98-0.98,0.98-2.572,0-3.553l-1.971-1.97l1.971-1.972C52.104,42.72,52.104,41.13,51.124,40.148z"/><path d="M86.62,58.246l-9.488,9.49c-0.918-0.418-1.92-0.645-2.957-0.645c-1.039,0-2.041,0.227-2.959,0.645l-4.479-4.479      c0.188-0.561,0.285-1.154,0.285-1.758c0-1.496-0.582-2.902-1.639-3.959l-2.52-2.52c-2.242-2.242-2.324-3.451-2.568-7.035      l-0.07-0.995v-2.634l0.07-0.996c0.244-3.584,0.326-4.793,2.57-7.037l2.516-2.517c1.059-1.057,1.641-2.463,1.641-3.959      c0-0.604-0.098-1.197-0.285-1.76l4.094-4.096c0.918,0.418,1.92,0.645,2.957,0.645c1.039,0,2.041-0.227,2.959-0.645l9.488,9.492      c0.49,0.491,1.133,0.737,1.777,0.737c0.643,0,1.285-0.246,1.775-0.737c0.982-0.98,0.982-2.572,0-3.553l-9.492-9.496      c1.191-2.635,0.715-5.848-1.449-8.012c-1.352-1.352-3.146-2.094-5.059-2.094c-1.037,0-2.039,0.227-2.957,0.643l-9.49-9.49      c-0.98-0.98-2.572-0.982-3.553,0c-0.982,0.98-0.982,2.572,0,3.553l9.494,9.494c-0.848,1.873-0.848,4.035,0,5.908l-4.131,4.133      c-0.525-0.16-1.074-0.26-1.641-0.26c-1.57,0-3.109,0.639-4.219,1.75l-2.35,2.348c-2.24,2.24-3.445,2.322-7.023,2.566      l-1.004,0.07h-2.631l-1.004-0.07c-3.582-0.244-4.789-0.326-7.029-2.568l-2.346-2.34c-1.111-1.117-2.65-1.756-4.219-1.756      c-0.566,0-1.113,0.1-1.637,0.258l-4.127-4.125c0.418-0.916,0.645-1.916,0.645-2.955c0-1.037-0.227-2.039-0.645-2.957l9.49-9.488      c0.982-0.982,0.982-2.572,0-3.555c-0.979-0.979-2.57-0.98-3.553,0l-9.49,9.49c-0.916-0.418-1.918-0.645-2.955-0.645      c-1.91,0-3.707,0.744-5.063,2.098c-2.16,2.164-2.637,5.375-1.445,8.01l-9.492,9.494c-0.982,0.982-0.982,2.572,0,3.555      c0.49,0.491,1.133,0.735,1.775,0.735c0.645,0,1.287-0.244,1.777-0.737l9.488-9.49c0.918,0.418,1.92,0.645,2.959,0.645      s2.039-0.227,2.957-0.645l4.09,4.09c-0.186,0.561-0.285,1.154-0.285,1.76c0,1.496,0.582,2.902,1.637,3.957l2.521,2.521      c2.238,2.238,2.32,3.445,2.566,7.023l0.07,1.01v2.63l-0.07,1.009c-0.246,3.578-0.328,4.783-2.566,7.023l-2.525,2.523      c-1.053,1.059-1.633,2.463-1.633,3.955c0,0.605,0.1,1.197,0.285,1.758l-4.236,4.236c-0.918-0.418-1.92-0.645-2.957-0.645      c-1.039,0-2.041,0.227-2.957,0.645l-9.49-9.492c-0.98-0.982-2.572-0.982-3.553,0c-0.982,0.98-0.982,2.57,0,3.553l9.492,9.494      c-1.191,2.637-0.715,5.85,1.449,8.014c1.35,1.352,3.146,2.096,5.059,2.096c1.037,0,2.039-0.227,2.957-0.645l9.49,9.49      c0.49,0.49,1.135,0.736,1.777,0.736s1.285-0.246,1.775-0.736c0.982-0.982,0.982-2.572,0-3.553l-9.49-9.49      c0.418-0.918,0.645-1.92,0.645-2.957c0-1.039-0.227-2.041-0.645-2.957l4.27-4.271c0.525,0.16,1.072,0.26,1.639,0.26      c1.568,0,3.105-0.639,4.215-1.75l2.352-2.348c2.236-2.238,3.441-2.322,7.018-2.568l1.014-0.07h2.631l1.014,0.07      c3.572,0.246,4.777,0.33,7.016,2.568l2.346,2.346c1.113,1.113,2.65,1.752,4.221,1.752c0.566,0,1.115-0.1,1.639-0.26l4.514,4.514      c-0.418,0.918-0.645,1.918-0.645,2.957s0.227,2.039,0.645,2.959l-9.492,9.488c-0.98,0.98-0.98,2.57,0,3.553      c0.49,0.49,1.133,0.736,1.777,0.736c0.643,0,1.285-0.246,1.775-0.736l9.492-9.488c0.918,0.416,1.92,0.643,2.959,0.643      c1.91,0,3.707-0.744,5.059-2.096c2.16-2.166,2.637-5.379,1.447-8.012l9.492-9.494c0.982-0.982,0.982-2.572,0-3.553      C89.192,57.264,87.601,57.264,86.62,58.246z M75.294,15.977c0.83,0.83,0.83,2.182,0,3.012c-0.443,0.441-1.063,0.631-1.664,0.588      c-0.098-0.459-0.322-0.898-0.68-1.256c-0.361-0.363-0.809-0.588-1.275-0.684c-0.043-0.596,0.152-1.205,0.605-1.658      c0.402-0.402,0.939-0.623,1.508-0.623C74.358,15.355,74.894,15.576,75.294,15.977z M15.909,18.992      c-0.83-0.828-0.83-2.18-0.002-3.008c0.402-0.402,0.939-0.625,1.508-0.625s1.102,0.221,1.504,0.623      c0.4,0.402,0.623,0.938,0.623,1.506c0,0.053-0.012,0.104-0.016,0.154c-0.467,0.094-0.912,0.32-1.275,0.684      c-0.357,0.357-0.58,0.795-0.678,1.256C16.97,19.625,16.351,19.434,15.909,18.992z M15.763,75.51c-0.83-0.83-0.83-2.182,0-3.012      c0.402-0.402,0.936-0.623,1.506-0.623c0.051,0,0.102,0.012,0.154,0.014c0.094,0.469,0.32,0.914,0.684,1.277      c0.361,0.363,0.809,0.59,1.277,0.684c0.002,0.053,0.014,0.102,0.014,0.154c0,0.568-0.221,1.102-0.625,1.506      C17.968,76.314,16.565,76.311,15.763,75.51z M58.497,59.385c-3.568-3.57-6.359-3.762-10.223-4.027l-1.084-0.078      c-0.063-0.004-0.125-0.006-0.188-0.006h-2.807c-0.063,0-0.125,0.002-0.188,0.006l-1.084,0.078      c-3.865,0.266-6.658,0.457-10.225,4.025l-2.354,2.35c-0.258,0.26-0.758,0.363-0.945,0.197c-0.127-0.107-0.199-0.264-0.199-0.43      c0-0.16,0.059-0.301,0.164-0.408l2.521-2.518c3.57-3.57,3.762-6.365,4.027-10.232l0.076-1.078      c0.004-0.063,0.006-0.125,0.006-0.188v-2.805c0-0.063-0.002-0.125-0.006-0.188l-0.076-1.078      c-0.266-3.867-0.457-6.662-4.027-10.232l-2.521-2.523c-0.107-0.109-0.164-0.244-0.164-0.402c0-0.166,0.07-0.318,0.203-0.434      c0.002-0.002,0.002-0.004,0.004-0.006c0.158-0.137,0.676-0.057,0.941,0.209l2.348,2.344c3.572,3.574,6.369,3.763,10.242,4.027      l1.07,0.074c0.063,0.006,0.123,0.008,0.186,0.008h2.807c0.063,0,0.123-0.002,0.186-0.008l1.07-0.074      c3.869-0.264,6.666-0.453,10.236-4.025l2.352-2.35c0.262-0.262,0.797-0.334,0.941-0.209c0.133,0.115,0.209,0.277,0.209,0.443      c0,0.158-0.057,0.293-0.168,0.406l-2.518,2.518c-3.576,3.576-3.766,6.375-4.029,10.25l-0.074,1.064      c-0.004,0.063-0.008,0.123-0.008,0.186v2.805c0,0.063,0.004,0.125,0.008,0.186l0.074,1.064      c0.264,3.875,0.455,6.674,4.029,10.248l2.518,2.52c0.111,0.111,0.168,0.248,0.168,0.406c0,0.162-0.076,0.326-0.205,0.438      c-0.158,0.139-0.684,0.057-0.949-0.207L58.497,59.385z M75.679,75.754c-0.803,0.803-2.211,0.799-3.012,0      c-0.402-0.402-0.623-0.938-0.623-1.508c0-0.051,0.012-0.102,0.014-0.152c0.469-0.096,0.916-0.322,1.277-0.686      c0.363-0.361,0.59-0.809,0.686-1.275c0.051-0.004,0.102-0.016,0.154-0.016c0.568,0,1.102,0.221,1.504,0.625      C76.509,73.57,76.507,74.924,75.679,75.754z"/></g></g></g></g></svg>